PathFileType	4	(X/Y/Z)	Patient4_TMGait_0pt6_02_right_46.trc.trc
DataRate	CameraRate	NumFrames	NumMarkers	Units	OrigDataRate	OrigDataStartFrame	OrigNumFrames
81.395348837209	81.395348837209	4	33	mm	81.395348837209	36	       141
Frame#	Time	Sacral			L.Shoulder			Chest			R.Shoulder			Neck			R.ASIS			L.ASIS			R.Thigh.Superior			R.Thigh.Lateral			R.Thigh.Inferior			R.Patella			L.Thigh.Superior			L.Thigh.Lateral			L.Thigh.Inferior			L.Patella			L.Shank.Superior			L.Shank.Lateral			L.Shank.Inferior			R.Shank.Superior			R.Shank.Lateral			R.Shank.Inferior			R.Heel			R.Midfoot.Superior			R.Midfoot.Lateral			R.Toe			L.Heel			L.Midfoot.Lateral			L.Midfoot.Superior			L.Toe			L.Elbow			L.Wrist			R.Elbow			R.Wrist			
		X1	Y1	Z1	X2	Y2	Z2	X3	Y3	Z3	X4	Y4	Z4	X5	Y5	Z5	X6	Y6	Z6	X7	Y7	Z7	X8	Y8	Z8	X9	Y9	Z9	X10	Y10	Z10	X11	Y11	Z11	X12	Y12	Z12	X13	Y13	Z13	X14	Y14	Z14	X15	Y15	Z15	X16	Y16	Z16	X17	Y17	Z17	X18	Y18	Z18	X19	Y19	Z19	X20	Y20	Z20	X21	Y21	Z21	X22	Y22	Z22	X23	Y23	Z23	X24	Y24	Z24	X25	Y25	Z25	X26	Y26	Z26	X27	Y27	Z27	X28	Y28	Z28	X29	Y29	Z29	X30	Y30	Z30	X31	Y31	Z31	X32	Y32	Z32	X33	Y33	Z33	

36	55.960000000000	836.205237824894	1003.851493424239	484.802390263058	1033.150192003861	1428.925642379425	312.225085162227	1119.309018365759	1356.641569348926	481.296647282616	1022.537852453017	1434.800042597694	645.530250845408	1018.801897243324	1491.584748287815	463.123860871383	1058.607402595721	941.060387603359	614.114394025814	1054.372966443844	957.788998155324	338.155956318530	1121.990357454331	750.380779049512	580.641859880660	1051.682717992914	634.281548069873	639.538045819732	1135.233459006620	590.307730504176	559.836594337378	1145.819982241222	502.007034385288	566.216488551566	1072.340576742088	732.904451194917	362.617680419990	967.095906970335	628.729558998726	299.871674527174	1040.463560512086	536.674460672153	359.728456646689	1027.336954141237	456.093286484066	359.536214639610	966.458911562883	398.781765898023	353.319930982016	833.913978638556	334.694482124311	306.065498226624	837.837118117418	207.239290432626	367.057717268641	1124.634895982063	411.974867999008	574.379971025796	1060.789895767908	303.162544775618	635.553756499918	1112.638887388423	211.894708803852	574.463840897585	992.871208431799	42.225073668819	544.433877995061	1161.991564469263	99.542206436353	579.289293971523	1076.442009639295	37.291194107896	618.763957548862	1283.568409927529	50.609593373850	606.262987187921	660.703638812566	102.160946322193	407.730600348061	729.325897049570	68.554857227638	331.604205406747	826.916626011377	106.103464240749	352.702221287150	931.856864426343	35.838295715160	334.964377950018	1089.094612555753	1105.324835137632	152.458496049025	1331.178807136800	1051.248475785896	221.797988151454	892.435199633990	1111.587338398325	754.223042611659	873.852230841122	850.126121682060	753.175572761886	
37	55.972285714286	836.122840712853	1005.039235994390	488.165084257292	1032.237094296907	1430.009341681686	314.271603423121	1119.453703414727	1357.638217373934	482.770330537857	1023.797065571307	1435.804428759917	647.583926160122	1018.674031029743	1492.556793662602	465.275692709534	1059.196844795053	942.159994516491	616.098636284806	1053.623622356800	958.758203508940	340.317270034353	1119.870531145519	749.529427942364	582.969114972760	1047.708646256334	634.470544812935	641.548235439750	1130.474726752746	589.533790378739	561.564959147866	1139.743682970810	501.497563273717	567.357944089743	1076.462106938162	735.086701502356	364.451029922814	975.060541281983	628.499420019742	301.163652653302	1051.684213598779	537.736310614271	360.419324305890	1039.418128494783	455.656982511449	359.031565791308	975.984644921746	398.957912715044	353.119435942061	840.816208742623	340.186618476576	306.401642619569	840.692714161532	212.176090616313	366.000416005098	1118.525379776769	411.688923357852	575.580806300230	1054.433012842455	302.904821674022	636.392240726035	1105.858124368355	211.664123919717	574.982116796029	985.645507385272	42.149192214930	544.525439304811	1154.814949750275	99.441668319250	579.451395303092	1069.191676995054	37.216442548143	618.890265129941	1276.366512883240	50.413280494685	606.393544621125	659.662662855352	116.223735917792	406.585215902641	725.976728263915	77.777009484838	330.866730312861	825.447596563791	109.454462864599	351.510378487873	924.658638604965	34.712421953902	334.981119049270	1082.058346919637	1103.779825530347	156.624110127182	1322.517275804054	1038.843951800184	223.824870758284	901.800681791203	1108.910160576845	757.999422737579	894.144656835613	846.830761666072	755.199552349118	
38	55.984571428571	835.879849091619	1006.041762352267	491.482491280784	1030.960682537971	1430.894733467472	316.270725267231	1119.476913568554	1358.430597516359	484.074052697455	1025.147534245751	1436.556867364888	649.603512108388	1018.362174463922	1493.313111631776	467.410055874957	1059.664097791879	942.989821459626	617.980668723556	1052.846652922136	959.532179571828	342.372218318303	1117.641215826195	748.542084568738	585.422146235633	1043.650475841410	634.556579090174	643.607637172129	1125.674744626092	588.700655287765	563.392002668931	1133.668422562582	500.945922500933	568.661131323736	1080.860388589705	737.448200950053	366.347182990472	983.838198556819	628.382309449218	302.270413706768	1063.630451274907	539.168750947944	361.166682608946	1052.338256277759	455.644117509779	358.773035064524	986.563053687622	399.398193732222	353.058185009422	849.089308192195	346.022166775788	306.547491591085	844.640760045833	217.744916640770	365.019254818993	1112.399905184132	411.331286953239	576.856229365402	1048.056846678135	302.563684720203	637.296108600044	1099.059977878971	211.366329812136	575.523214351817	978.365078683684	42.077784874363	544.568467745110	1147.626592391738	99.257117542433	579.574064181892	1061.882112337535	37.121037601334	618.970758906778	1269.139526414037	50.011682380344	606.476269628623	660.004654000102	131.686064167322	405.260242550855	723.718025284505	88.406578463283	329.976689935277	824.839892764078	113.668382492111	350.423421084821	917.758576692624	33.482841892909	334.988977178521	1074.858940190888	1102.201525731567	160.736239459235	1313.032314617603	1025.624376784701	225.667497152181	911.611661983708	1106.224762285784	761.863761480317	915.480341808533	843.975498553812	757.109953357603	
39	55.996857142857	835.469929189030	1006.843880716627	494.701150803575	1029.340514446400	1431.566496550605	318.192961453174	1119.374292585902	1358.991935663969	485.181179734938	1026.571892113274	1437.036119064214	651.554025791616	1017.891778238467	1493.849429656065	469.490834891902	1059.971180727128	943.576899808593	619.773630859727	1052.031198023082	960.077329582908	344.303148772074	1115.369953195046	747.513787327974	587.929542208994	1039.652916993795	634.584969120512	645.705118069977	1120.965296836931	587.855665519834	565.299361882794	1127.722043080772	500.380421961947	570.132447194468	1085.414012047443	740.014013946045	368.321068773939	993.244589826261	628.478267415420	303.212130339857	1076.057797901193	541.061689930348	361.998880277061	1065.902350244285	456.161227342228	358.792743315132	998.022817849295	400.184044786674	353.172209826493	858.594599278628	352.153132769107	306.526853651253	849.644895163588	223.895714606996	364.164437916247	1106.367393605857	410.922290117203	578.198623972504	1041.761509402331	302.180296842800	638.289947774485	1092.302647488261	211.022540518700	576.095210195666	971.039898853376	42.027534174535	544.598031237174	1140.435062820351	99.019348103824	579.684497956577	1054.528040135825	37.023965088548	619.035286882144	1261.897879722279	49.441734559005	606.537899249633	661.812761635190	148.200420611521	403.803050366720	722.722580770651	100.251214521769	328.965328510069	825.194429015895	118.779349447306	349.475765243221	911.422557894681	32.267179460791	334.974620210835	1067.521559224861	1100.520973536611	164.802727548758	1302.639305133666	1011.638023502799	227.272851537024	921.870440224505	1103.525493385308	765.753987158991	937.760002714114	841.635853245694	758.855788964497	
